<mxfile host="app.diagrams.net" modified="2020-12-17T19:41:03.677Z" agent="5.0 (X11; Linux x86_64) AppleWebKit/537.36 (KHTML, like Gecko) Chrome/87.0.4280.101 Safari/537.36" etag="Ne7QRuw1ZJZis82rylor" version="14.0.4" type="github">
  <diagram id="HmePtPXCpKLGKGKJF9h8" name="Page-1">
    <mxGraphModel dx="1214" dy="2257" grid="1" gridSize="10" guides="1" tooltips="1" connect="1" arrows="1" fold="1" page="1" pageScale="1" pageWidth="850" pageHeight="1100" math="0" shadow="0">
      <root>
        <mxCell id="0" />
        <mxCell id="1" parent="0" />
        <mxCell id="m0nq8d_Ifn6IyRjxcJc2-6" value="Primary DB" style="outlineConnect=0;fontColor=#232F3E;gradientColor=none;fillColor=#3334B9;strokeColor=none;dashed=0;verticalLabelPosition=bottom;verticalAlign=top;align=center;html=1;fontSize=12;fontStyle=0;aspect=fixed;pointerEvents=1;shape=mxgraph.aws4.aurora_instance;" vertex="1" parent="1">
          <mxGeometry x="290" y="790" width="78" height="78" as="geometry" />
        </mxCell>
        <mxCell id="ePyfuxbfB_I1OFZZbDPf-1" value="VPC" style="outlineConnect=0;gradientColor=none;html=1;whiteSpace=wrap;fontSize=12;fontStyle=0;shape=mxgraph.aws4.group;grIcon=mxgraph.aws4.group_vpc;strokeColor=#879196;fillColor=none;verticalAlign=top;align=left;spacingLeft=30;fontColor=#879196;dashed=0;" parent="1" vertex="1">
          <mxGeometry x="180" y="70" width="490" height="880" as="geometry" />
        </mxCell>
        <mxCell id="ePyfuxbfB_I1OFZZbDPf-3" value="App Subnet" style="outlineConnect=0;gradientColor=none;html=1;whiteSpace=wrap;fontSize=12;fontStyle=0;shape=mxgraph.aws4.group;grIcon=mxgraph.aws4.group_vpc;strokeColor=#879196;fillColor=none;verticalAlign=top;align=left;spacingLeft=30;fontColor=#879196;dashed=0;" parent="1" vertex="1">
          <mxGeometry x="215" y="340" width="420" height="260" as="geometry" />
        </mxCell>
        <mxCell id="ePyfuxbfB_I1OFZZbDPf-2" value="Web Subnet" style="outlineConnect=0;gradientColor=none;html=1;whiteSpace=wrap;fontSize=12;fontStyle=0;shape=mxgraph.aws4.group;grIcon=mxgraph.aws4.group_vpc;strokeColor=#879196;fillColor=none;verticalAlign=top;align=left;spacingLeft=30;fontColor=#879196;dashed=0;" parent="1" vertex="1">
          <mxGeometry x="215" y="100" width="420" height="200" as="geometry" />
        </mxCell>
        <mxCell id="ePyfuxbfB_I1OFZZbDPf-4" value="DB Subnet" style="outlineConnect=0;gradientColor=none;html=1;whiteSpace=wrap;fontSize=12;fontStyle=0;shape=mxgraph.aws4.group;grIcon=mxgraph.aws4.group_vpc;strokeColor=#879196;fillColor=none;verticalAlign=top;align=left;spacingLeft=30;fontColor=#879196;dashed=0;" parent="1" vertex="1">
          <mxGeometry x="215" y="660" width="420" height="240" as="geometry" />
        </mxCell>
        <mxCell id="ePyfuxbfB_I1OFZZbDPf-24" style="edgeStyle=orthogonalEdgeStyle;rounded=0;orthogonalLoop=1;jettySize=auto;html=1;entryX=0.5;entryY=0;entryDx=0;entryDy=0;" parent="1" source="ePyfuxbfB_I1OFZZbDPf-5" target="ePyfuxbfB_I1OFZZbDPf-16" edge="1">
          <mxGeometry relative="1" as="geometry" />
        </mxCell>
        <mxCell id="ePyfuxbfB_I1OFZZbDPf-25" style="edgeStyle=orthogonalEdgeStyle;rounded=0;orthogonalLoop=1;jettySize=auto;html=1;entryX=0.5;entryY=0;entryDx=0;entryDy=0;" parent="1" edge="1">
          <mxGeometry relative="1" as="geometry">
            <mxPoint x="425.0000000000002" y="247.17000000000007" as="sourcePoint" />
            <mxPoint x="515.0000000000002" y="401" as="targetPoint" />
            <Array as="points">
              <mxPoint x="425" y="324" />
              <mxPoint x="515" y="324" />
            </Array>
          </mxGeometry>
        </mxCell>
        <mxCell id="ePyfuxbfB_I1OFZZbDPf-5" value="ALB" style="verticalLabelPosition=bottom;html=1;verticalAlign=top;strokeWidth=1;align=center;outlineConnect=0;dashed=0;outlineConnect=0;shape=mxgraph.aws3d.elasticLoadBalancing;fillColor=#ECECEC;strokeColor=#5E5E5E;aspect=fixed;" parent="1" vertex="1">
          <mxGeometry x="379" y="160" width="92" height="88.17" as="geometry" />
        </mxCell>
        <mxCell id="ePyfuxbfB_I1OFZZbDPf-8" value="" style="rounded=0;whiteSpace=wrap;html=1;fillColor=none;labelPosition=left;verticalLabelPosition=top;align=right;verticalAlign=bottom;" parent="1" vertex="1">
          <mxGeometry x="240" y="384" width="370" height="166" as="geometry" />
        </mxCell>
        <mxCell id="ePyfuxbfB_I1OFZZbDPf-9" value="ECS&lt;br&gt;Cluster" style="outlineConnect=0;fontColor=#232F3E;gradientColor=#F78E04;gradientDirection=north;fillColor=#D05C17;strokeColor=#ffffff;dashed=0;verticalLabelPosition=bottom;verticalAlign=top;align=center;html=1;fontSize=12;fontStyle=0;aspect=fixed;shape=mxgraph.aws4.resourceIcon;resIcon=mxgraph.aws4.ecs;" parent="1" vertex="1">
          <mxGeometry x="241" y="385" width="40" height="40" as="geometry" />
        </mxCell>
        <mxCell id="ePyfuxbfB_I1OFZZbDPf-22" style="edgeStyle=orthogonalEdgeStyle;rounded=0;orthogonalLoop=1;jettySize=auto;html=1;exitX=0.5;exitY=1;exitDx=0;exitDy=0;" parent="1" source="ePyfuxbfB_I1OFZZbDPf-16" target="m0nq8d_Ifn6IyRjxcJc2-6" edge="1">
          <mxGeometry relative="1" as="geometry">
            <Array as="points">
              <mxPoint x="364" y="730" />
              <mxPoint x="320" y="730" />
            </Array>
            <mxPoint x="320" y="841" as="targetPoint" />
          </mxGeometry>
        </mxCell>
        <mxCell id="ePyfuxbfB_I1OFZZbDPf-16" value="WordPress&lt;br&gt;Container&lt;br&gt;-------------------------------&lt;br&gt;&lt;ul&gt;&lt;li&gt;Debian Linux&lt;/li&gt;&lt;li&gt;Nginx&lt;/li&gt;&lt;li&gt;EFS Mount Point&lt;/li&gt;&lt;/ul&gt;" style="whiteSpace=wrap;html=1;aspect=fixed;fillColor=none;horizontal=1;verticalAlign=top;align=left;" parent="1" vertex="1">
          <mxGeometry x="299" y="400" width="130" height="130" as="geometry" />
        </mxCell>
        <mxCell id="ePyfuxbfB_I1OFZZbDPf-23" style="edgeStyle=orthogonalEdgeStyle;rounded=0;orthogonalLoop=1;jettySize=auto;html=1;exitX=0.5;exitY=1;exitDx=0;exitDy=0;" parent="1" source="ePyfuxbfB_I1OFZZbDPf-17" edge="1">
          <mxGeometry relative="1" as="geometry">
            <Array as="points">
              <mxPoint x="515" y="730" />
              <mxPoint x="320" y="730" />
            </Array>
            <mxPoint x="320" y="790" as="targetPoint" />
          </mxGeometry>
        </mxCell>
        <mxCell id="ePyfuxbfB_I1OFZZbDPf-17" value="WordPress&lt;br&gt;Container&lt;br&gt;-------------------------------&lt;br&gt;&lt;ul&gt;&lt;li&gt;Debian Linux&lt;/li&gt;&lt;li&gt;Nginx&lt;/li&gt;&lt;li&gt;EFS Mount Point&lt;/li&gt;&lt;/ul&gt;" style="whiteSpace=wrap;html=1;aspect=fixed;fillColor=none;horizontal=1;verticalAlign=top;align=left;" parent="1" vertex="1">
          <mxGeometry x="450" y="402" width="130" height="130" as="geometry" />
        </mxCell>
        <mxCell id="ePyfuxbfB_I1OFZZbDPf-28" value="Route 53" style="outlineConnect=0;dashed=0;verticalLabelPosition=bottom;verticalAlign=top;align=center;html=1;shape=mxgraph.aws3.route_53;fillColor=#F58536;gradientColor=none;" parent="1" vertex="1">
          <mxGeometry x="50" y="-10" width="70.5" height="85.5" as="geometry" />
        </mxCell>
        <mxCell id="ePyfuxbfB_I1OFZZbDPf-38" value="DNS&lt;br&gt;Resolution" style="edgeStyle=orthogonalEdgeStyle;rounded=0;orthogonalLoop=1;jettySize=auto;html=1;exitX=0.5;exitY=0;exitDx=0;exitDy=0;" parent="1" source="ePyfuxbfB_I1OFZZbDPf-35" target="ePyfuxbfB_I1OFZZbDPf-28" edge="1">
          <mxGeometry relative="1" as="geometry" />
        </mxCell>
        <mxCell id="m0nq8d_Ifn6IyRjxcJc2-10" style="edgeStyle=orthogonalEdgeStyle;rounded=0;orthogonalLoop=1;jettySize=auto;html=1;" edge="1" parent="1" source="ePyfuxbfB_I1OFZZbDPf-35" target="m0nq8d_Ifn6IyRjxcJc2-9">
          <mxGeometry relative="1" as="geometry" />
        </mxCell>
        <mxCell id="ePyfuxbfB_I1OFZZbDPf-35" value="" style="image;html=1;image=img/lib/clip_art/people/Construction_Worker_Man_128x128.png;dashed=1;fillColor=none;" parent="1" vertex="1">
          <mxGeometry x="45.25" y="164.09" width="80" height="80" as="geometry" />
        </mxCell>
        <mxCell id="m0nq8d_Ifn6IyRjxcJc2-8" style="edgeStyle=orthogonalEdgeStyle;rounded=0;orthogonalLoop=1;jettySize=auto;html=1;" edge="1" parent="1" source="m0nq8d_Ifn6IyRjxcJc2-6" target="m0nq8d_Ifn6IyRjxcJc2-7">
          <mxGeometry relative="1" as="geometry" />
        </mxCell>
        <mxCell id="m0nq8d_Ifn6IyRjxcJc2-7" value="Read Replica" style="outlineConnect=0;fontColor=#232F3E;gradientColor=none;fillColor=#3334B9;strokeColor=none;dashed=0;verticalLabelPosition=bottom;verticalAlign=top;align=center;html=1;fontSize=12;fontStyle=0;aspect=fixed;pointerEvents=1;shape=mxgraph.aws4.aurora_instance;" vertex="1" parent="1">
          <mxGeometry x="460" y="790" width="78" height="78" as="geometry" />
        </mxCell>
        <mxCell id="m0nq8d_Ifn6IyRjxcJc2-11" style="edgeStyle=orthogonalEdgeStyle;rounded=0;orthogonalLoop=1;jettySize=auto;html=1;" edge="1" parent="1" source="m0nq8d_Ifn6IyRjxcJc2-9" target="ePyfuxbfB_I1OFZZbDPf-5">
          <mxGeometry relative="1" as="geometry" />
        </mxCell>
        <mxCell id="m0nq8d_Ifn6IyRjxcJc2-9" value="Amazon Cloudfront" style="outlineConnect=0;fontColor=#232F3E;gradientColor=none;strokeColor=#ffffff;fillColor=#232F3E;dashed=0;verticalLabelPosition=middle;verticalAlign=bottom;align=center;html=1;whiteSpace=wrap;fontSize=10;fontStyle=1;spacing=3;shape=mxgraph.aws4.productIcon;prIcon=mxgraph.aws4.cloudfront;" vertex="1" parent="1">
          <mxGeometry x="161" y="149.09" width="80" height="110" as="geometry" />
        </mxCell>
      </root>
    </mxGraphModel>
  </diagram>
</mxfile>
